<svg width="1084" height="200" viewBox="0 0 1084 200" fill="none" xmlns="http://www.w3.org/2000/svg">
<path d="M377.124 198.037V157.165C374.275 160.748 371.098 163.94 367.537 166.739C357.238 174.41 344.692 178.609 332.147 178.609C322.177 178.609 312.261 175.921 303.441 170.77C294.237 165.563 286.568 157.445 281.199 147.255L280.98 146.863V146.639C276.707 138.52 274.516 129.226 274.516 119.708L274.297 110.414V100.616H304.591C300.318 97.2003 296.703 93.1691 293.964 88.6899C289.964 82.1392 287.718 75.3085 287.225 68.2539C287.225 67.9179 287.225 67.582 287.171 67.19C286.951 67.1341 286.787 67.0781 286.677 67.0781C285.089 66.7422 283.719 66.6303 282.404 66.6303C278.789 66.6303 275.885 67.8619 273.475 70.3254C271.777 72.0611 270.845 74.3568 270.845 76.7643V176.929H149.611V134.601C145.94 141.88 141.174 148.655 135.367 154.813C128.191 162.148 119.864 167.915 110.551 171.89C100.252 176.089 90.2812 178.161 80.1463 178.161C70.0115 178.161 60.1506 176.201 51.0567 172.394V198.037H1.64258V18.1435H51.0567V23.9104C60.2054 20.1031 69.9567 18.1435 80.1463 18.1435C90.3359 18.1435 100.252 20.2151 110.551 24.4143C120.028 28.5015 128.355 34.3244 135.367 41.771C141.174 47.7059 145.94 54.3685 149.611 61.7591V1.73853H235.072V38.5796C236.168 37.1799 237.318 35.892 238.523 34.6603C249.535 23.4064 264.271 17.1916 280.049 17.1916C283.993 17.1916 287.335 17.5275 290.293 18.1994C293.361 18.8153 296.1 19.6551 298.949 20.495L301.633 21.2789V29.4533C302.017 29.1174 302.4 28.7254 302.784 28.3895C307.276 24.5822 312.042 21.7268 317.027 19.9911C322.232 18.1434 327.436 17.1916 332.476 17.1916C341.899 17.1916 351.431 20.2711 359.374 25.814C364.907 30.0692 369.18 34.7722 372.139 39.8672C374.549 43.8985 376.083 47.6499 377.233 51.5691V18.1994H426.648V23.9663C435.796 20.159 445.548 18.1994 455.737 18.1994C465.927 18.1994 475.842 20.271 486.142 24.4702C495.619 28.5574 503.946 34.3803 510.958 41.8269C517.697 48.7136 523.065 56.6641 526.955 65.5104C531.173 56.0482 536.816 47.6498 543.773 40.5951C551.552 32.6446 560.263 26.6538 569.795 22.7906C579.765 18.3114 590.393 16.0159 601.405 16.0159C612.416 16.0159 623.044 18.3114 633.069 22.7906C642.492 26.6538 651.257 32.6446 659.036 40.5951C666.158 47.8177 671.855 56.4401 676.128 66.1262C680.401 56.2161 686.208 47.4818 693.44 40.0912C701.219 32.1408 709.929 26.1499 719.462 22.2867C729.432 17.8075 740.06 15.512 751.071 15.512C762.083 15.512 772.711 17.8075 782.736 22.2867C792.213 26.1499 800.924 32.1408 808.703 40.0912C808.922 40.3152 809.196 40.5952 809.415 40.8752V18.2554H828.151V1.79457H877.565V18.2554H880.523V1.79457H929.937V17.9756H996.827V1.79457H1082.29V88.1302H1046.24V126.539H1082.29V177.041H996.827V116.741L987.843 176.761H938.867L936.949 164.052L929.882 116.181V177.041H880.468V67.526H877.51V177.041H828.096V125.587C827.493 127.491 826.781 129.45 826.069 131.298C821.796 141.376 815.934 150.222 808.648 157.613C801.198 165.227 792.706 171.05 782.681 175.417C772.93 179.785 762.576 181.912 751.071 181.912C739.567 181.912 729.213 179.785 719.407 175.361C709.382 170.994 700.89 165.171 693.44 157.557C686.263 150.222 680.511 141.544 676.238 131.746C673.937 137.401 671.034 142.72 667.637 147.535C662.926 154.533 657.174 160.58 649.997 166.067C643.204 171.274 635.644 175.305 627.427 178.105C619.593 180.904 610.827 182.36 601.459 182.36C589.955 182.36 579.601 180.233 569.795 175.809C560.318 171.946 551.607 165.955 543.828 158.005C536.597 150.614 530.79 141.88 526.517 131.97C522.737 140.256 517.532 147.927 511.013 154.813C503.836 162.148 495.51 167.915 486.196 171.89C475.897 176.089 465.927 178.161 455.792 178.161C445.657 178.161 435.796 176.201 426.702 172.394V198.037H377.288H377.124ZM573.192 114.557C578.834 125.139 589.626 131.802 601.295 131.802C607.321 131.802 613.238 130.01 618.442 126.651C623.153 123.571 626.933 119.428 629.399 114.501H573.192V114.557ZM750.907 65.9583C742.47 65.9583 734.253 69.4297 728.282 75.5326C722.256 81.9154 718.914 90.1456 718.914 98.656C718.914 107.166 722.256 115.621 728.282 121.78C734.089 127.938 742.142 131.354 750.907 131.354C759.672 131.354 767.506 127.938 773.532 121.78C778.846 116.349 781.969 109.574 782.681 102.183L782.845 100.672H828.041V94.9609H782.736L782.517 93.5611C781.311 86.5065 778.244 80.2917 773.587 75.5326C767.342 69.3737 759.289 65.9583 750.962 65.9583H750.907ZM323.985 119.764C323.82 122.116 324.642 124.131 326.395 125.923C328.258 127.827 330.504 128.89 332.695 128.89C333.681 128.89 334.612 128.666 335.325 128.33L335.653 128.162H335.763L336.092 127.995C337.79 127.491 339.926 125.755 340.748 123.179C341.789 120.66 341.844 118.476 340.912 116.965L340.693 116.573V116.405L340.584 116.293C339.817 114.557 337.845 112.877 335.489 112.038C334.339 111.534 332.914 111.254 331.325 110.974L329.518 110.638C327.819 110.47 325.957 110.134 324.039 109.686V119.82L323.985 119.764ZM455.628 68.6458C439.686 68.6458 426.757 81.8592 426.757 98.1521C426.757 114.445 439.686 127.659 455.628 127.659C471.569 127.659 484.279 114.445 484.279 98.1521C484.279 81.8592 471.46 68.6458 455.628 68.6458ZM80.1463 68.6458C64.2045 68.6458 51.2758 81.8592 51.2758 98.1521C51.2758 114.445 64.2045 127.659 80.1463 127.659C96.0881 127.659 108.798 114.445 108.798 98.1521C108.798 81.8592 95.9786 68.6458 80.1463 68.6458ZM221.486 126.427V88.0181H199.08V126.427H221.486ZM360.141 67.4141C367.318 71.7252 372.96 77.828 377.124 83.483V67.4141H360.141ZM826.343 67.4141C826.945 68.9258 827.493 70.4375 827.986 71.9492V67.4141H826.343Z" fill="black"/>
<path d="M1080.43 3.35939V86.3356H1044.38V128.104H1080.43V175.247H998.252V94.51L987.898 163.713L986.2 175.023H940.073L938.375 163.713L928.021 93.6702V175.247H881.894V65.7316H875.648V175.247H829.521V111.587C828.48 118.082 826.727 124.352 824.317 130.567C820.208 140.141 814.456 148.988 807.279 156.322C799.829 163.937 791.447 169.592 781.805 173.735C771.945 178.158 761.645 180.118 750.798 180.118C739.951 180.118 729.652 178.158 719.791 173.735C710.204 169.536 701.768 163.937 694.317 156.322C687.086 148.932 681.334 140.141 677.28 130.567C676.787 129.391 676.458 128.16 676.02 126.984C673.609 133.927 670.268 140.533 666.049 146.524C661.228 153.635 655.476 159.514 648.738 164.721C642 169.872 634.549 173.791 626.661 176.478C618.498 179.446 609.842 180.678 601.187 180.678C590.394 180.678 580.04 178.718 570.179 174.295C560.592 170.376 552.156 164.497 544.705 156.882C537.474 149.492 531.722 140.701 527.668 131.127C527.175 129.951 526.792 128.664 526.408 127.488C526.244 127.88 526.134 128.272 525.97 128.72C522.135 138.07 516.602 146.412 509.644 153.747C502.687 160.857 494.524 166.512 485.376 170.431C475.789 174.351 465.928 176.59 455.574 176.59C445.22 176.59 434.428 174.407 424.841 169.984V196.523H378.714V152.235C375.372 157.274 371.318 161.753 366.497 165.56C356.636 172.951 344.639 177.094 332.148 177.094C322.287 177.094 312.7 174.407 304.264 169.48C295.115 164.329 287.665 156.21 282.624 146.636V146.412C278.297 138.294 276.16 129.223 276.16 119.873L275.941 110.523V102.405H309.797C304.045 98.7092 299.005 93.8382 295.389 87.9033C291.773 81.9684 289.363 75.3616 288.925 68.251C288.87 67.5231 288.87 66.7393 288.815 66.0115C287.938 65.7875 287.226 65.5636 286.952 65.5636C285.364 65.2277 283.83 65.0596 282.405 65.0596C278.461 65.0596 275.119 66.3473 272.271 69.2588C270.353 71.2184 269.148 73.906 269.148 76.8734V175.359H151.201V126.704C150.927 127.376 150.762 128.048 150.488 128.72C146.654 138.07 141.12 146.412 134.163 153.747C127.206 160.857 119.043 166.512 109.894 170.431C100.307 174.351 90.4464 176.59 80.0925 176.59C69.7385 176.59 58.9463 174.407 49.3593 169.984V196.523H3.28697V19.9882H49.4141V26.5949C59.0011 22.1718 69.355 19.9882 80.1472 19.9882C90.9395 19.9882 100.307 22.1718 109.949 26.1471C119.098 30.0663 127.26 35.7212 134.218 43.1118C141.175 50.2225 146.708 58.5648 150.543 67.9151C150.817 68.5869 151.036 69.2589 151.255 69.9308V3.5834H233.43V43.7837C235.292 41.0402 237.374 38.4088 239.675 36.0013C250.467 24.9714 264.656 19.0365 280.05 19.0365C283.391 19.0365 286.788 19.2604 289.911 20.0443C293.526 20.7721 296.649 21.7798 299.991 22.7316V33.7615C301.196 32.4178 302.456 31.0742 303.88 29.8424C308.208 26.1471 312.755 23.4595 317.576 21.7239C322.397 19.9882 327.437 19.0365 332.477 19.0365C341.626 19.0365 350.72 22.0039 358.444 27.3789C363.265 31.0742 367.593 35.4973 370.715 40.8723C375.536 48.9908 376.96 55.8774 377.947 65.8995H352.966C363.648 69.8748 372.468 78.9451 378.878 89.0231V19.9882H425.005V26.5949C434.592 22.1718 444.946 19.9882 455.738 19.9882C466.53 19.9882 475.898 22.1718 485.54 26.1471C494.689 30.0663 502.851 35.7212 509.809 43.1118C516.766 50.2225 522.299 58.5648 526.134 67.9151C526.463 68.6429 526.682 69.4268 526.956 70.2106C527.285 69.3708 527.504 68.5309 527.832 67.6911C531.941 58.1169 537.693 49.2707 544.87 41.9361C552.32 34.3216 560.702 28.4426 570.344 24.5233C580.205 20.1002 590.504 17.9166 601.351 17.9166C612.198 17.9166 622.497 20.1002 632.358 24.5233C641.945 28.4426 650.381 34.3216 657.832 41.9361C665.063 49.3267 670.815 58.1169 674.869 67.6911C675.308 68.8108 675.691 69.9308 676.129 70.9946C676.568 69.7068 676.951 68.4189 677.499 67.1872C681.608 57.613 687.36 48.7668 694.536 41.4322C701.987 33.8177 710.369 27.9387 720.01 24.0195C729.871 19.5963 740.17 17.4128 751.017 17.4128C761.864 17.4128 772.164 19.5963 782.025 24.0195C791.612 27.9387 800.048 33.8177 807.499 41.4322C808.759 42.72 809.854 44.0637 811.059 45.4074V20.0443H829.795V3.5834H875.922V20.0443H882.167V3.5834H928.295V19.7642H998.471V3.5834H1080.65M757.372 51.5102C756.112 51.3423 754.852 51.0623 753.537 51.0064H750.908C753.099 51.0064 755.291 51.1743 757.427 51.5102M750.908 132.975C759.783 132.975 768.219 129.559 774.684 122.897C780.217 117.242 783.558 110.131 784.271 102.293H829.631V93.2223H784.052C782.846 86.1117 779.724 79.4489 774.684 74.2979C768.219 67.9151 759.783 64.2197 750.908 64.2197C742.033 64.2197 733.377 67.9151 727.132 74.2979C720.887 80.9047 717.271 89.527 717.271 98.5973C717.271 107.668 720.887 116.514 727.132 122.897C733.377 129.503 742.033 132.975 750.908 132.975ZM829.631 85.8317V65.7316H823.824C823.988 66.1235 824.207 66.5154 824.426 66.9633C826.892 73.0102 828.645 79.337 829.631 85.8317ZM455.629 129.335C472.228 129.335 485.924 115.338 485.924 98.1493C485.924 80.9605 472.228 66.9633 455.629 66.9633C439.029 66.9633 425.115 80.9605 425.115 98.1493C425.115 115.338 438.81 129.335 455.629 129.335ZM80.1472 129.335C96.7464 129.335 110.442 115.338 110.442 98.1493C110.442 80.9605 96.7464 66.9633 80.1472 66.9633C63.548 66.9633 49.6332 80.9605 49.6332 98.1493C49.6332 115.338 63.3289 129.335 80.1472 129.335ZM197.382 128.104H223.076V86.3356H197.382V128.104ZM332.696 130.567C333.901 130.567 335.106 130.343 336.038 129.839H336.257L336.476 129.615C338.886 128.888 341.297 126.648 342.228 123.736C343.433 120.769 343.433 118.082 342.228 116.122V115.898L342.009 115.674C341.023 113.49 338.667 111.475 335.983 110.523C334.285 109.795 332.148 109.515 329.738 109.067C327.601 108.843 324.917 108.339 322.287 107.611V119.873C322.068 123.288 323.712 125.752 325.191 127.264C327.327 129.447 330.012 130.679 332.641 130.679M601.296 133.479C607.76 133.479 614.006 131.519 619.32 128.104C624.579 124.688 628.907 119.761 631.591 113.882L632.084 112.874H570.563C575.822 124.912 587.6 133.479 601.296 133.479ZM750.908 146.524H753.811C755.071 146.468 756.277 146.188 757.482 146.02C755.345 146.356 753.154 146.524 750.908 146.524ZM771.999 163.209C776.108 161.809 779.943 159.961 783.613 157.834C781.805 158.898 779.943 159.85 777.971 160.745C776.053 161.697 774.026 162.481 771.945 163.209M1083.71 0H994.965V16.181H931.362V0H826.289V16.4609H807.553V36.729C800.158 29.6743 791.94 24.2435 783.065 20.6042C772.931 16.0691 762.084 13.7175 750.853 13.7175C739.623 13.7175 728.776 16.0691 718.531 20.6042C708.944 24.5234 699.96 30.6262 692.071 38.7447C685.497 45.4074 680.129 53.2459 675.91 61.9802C671.747 53.4138 666.433 45.7433 660.023 39.1925C652.135 31.1301 643.15 24.9712 633.454 20.996C623.319 16.4609 612.472 14.1094 601.241 14.1094C590.011 14.1094 579.164 16.4609 568.919 20.996C559.332 24.9152 550.348 31.0182 542.459 39.1366C536.159 45.5754 530.955 53.022 526.846 61.3644C523.066 53.6379 518.081 46.5832 512 40.3684C504.824 32.8099 496.332 26.8749 486.69 22.7316C476.117 18.4205 465.983 16.349 455.629 16.349C446.042 16.349 436.838 18.0285 428.182 21.3319V16.349H375.481V42.608C374.879 41.3762 374.221 40.1444 373.454 38.8566C370.441 33.5936 366.004 28.7226 360.361 24.4114C352.034 18.5885 342.173 15.3971 332.422 15.3971C327.163 15.3971 321.794 16.349 316.426 18.3086C311.824 19.9323 307.386 22.4517 303.223 25.7551V19.9322L300.812 19.2603L299.278 18.8125C296.375 17.9727 293.636 17.1328 290.458 16.5169C287.5 15.845 284.049 15.4531 279.94 15.4531C263.724 15.4531 248.55 21.836 237.264 33.3698C237.045 33.5937 236.826 33.8176 236.607 34.0416V0H147.859V55.3175C144.627 49.9985 140.792 45.0155 136.409 40.5364C129.233 32.9778 120.741 27.0428 111.1 22.8996C100.526 18.5884 90.3916 16.5169 80.0377 16.5169C70.4507 16.5169 61.2472 18.1965 52.5915 21.4999V16.5169H0V199.77H52.7011V174.911C61.3567 178.214 70.5602 179.894 80.1472 179.894C90.5012 179.894 100.636 177.822 111.154 173.511C120.687 169.424 129.233 163.545 136.519 156.098C140.956 151.395 144.791 146.412 147.968 141.093V178.718H272.49V76.8734C272.49 74.9138 273.257 73.0662 274.626 71.6664C276.763 69.4828 279.228 68.475 282.405 68.475C283.391 68.475 284.487 68.5869 285.638 68.7549C286.131 75.8655 288.486 82.9763 292.595 89.695C294.677 93.0543 297.197 96.1897 300.155 99.0451H272.654V110.523L272.873 119.929C272.873 129.503 275.119 138.966 279.338 147.196L279.721 148.204C285.254 158.674 293.143 167.016 302.675 172.391C311.659 177.654 321.849 180.398 332.148 180.398C345.022 180.398 357.951 176.086 368.469 168.192C370.989 166.232 373.29 164.049 375.481 161.697V199.77H428.182V174.911C436.838 178.214 446.042 179.894 455.629 179.894C465.983 179.894 476.117 177.822 486.636 173.511C496.168 169.424 504.714 163.545 512 156.098C517.807 149.939 522.628 143.221 526.298 135.942C530.517 144.732 535.94 152.571 542.459 159.29C550.348 167.352 559.332 173.511 569.029 177.486C578.945 181.909 589.518 184.093 601.241 184.093C610.828 184.093 619.758 182.637 627.811 179.726C636.138 176.87 643.862 172.783 650.765 167.464C658.051 161.865 663.968 155.65 668.789 148.54C671.528 144.62 673.993 140.365 676.02 135.886C680.183 144.565 685.552 152.235 692.016 158.842C699.631 166.624 708.287 172.559 718.531 176.982C728.502 181.461 739.075 183.645 750.798 183.645C762.522 183.645 773.095 181.461 783.12 176.982C793.31 172.559 801.965 166.624 809.58 158.842C816.428 151.843 822.016 143.669 826.234 134.486V178.774H931.308V138.63L935.088 164.329L936.786 175.638L937.224 178.494H988.994L989.432 175.638L991.13 164.329L994.911 138.909V178.718H1083.66V124.856H1047.61V89.8069H1083.66V0.112088L1083.71 0ZM750.908 129.615C742.581 129.615 734.966 126.424 729.488 120.601C723.736 114.722 720.558 106.884 720.558 98.5973C720.558 90.3109 723.736 82.7523 729.488 76.5935C735.076 70.8826 742.91 67.5791 750.908 67.5791C758.906 67.5791 766.411 70.8266 772.438 76.7054C776.82 81.1846 779.724 87.0634 780.874 93.7821L781.367 96.5816H826.453V98.9332H781.422L781.148 101.957C780.491 108.955 777.532 115.394 772.492 120.545C766.74 126.424 759.125 129.615 751.017 129.615H750.908ZM365.566 69.0908H375.481V78.721C372.687 75.3616 369.4 72.0022 365.566 69.0908ZM455.629 125.976C440.618 125.976 428.402 113.49 428.402 98.1493C428.402 82.8082 440.618 70.3226 455.629 70.3226C470.639 70.3226 482.637 82.8082 482.637 98.1493C482.637 113.49 470.53 125.976 455.629 125.976ZM80.1472 125.976C65.1367 125.976 52.9202 113.49 52.9202 98.1493C52.9202 82.8082 65.1367 70.3226 80.1472 70.3226C95.1577 70.3226 107.155 82.8082 107.155 98.1493C107.155 113.49 95.0482 125.976 80.1472 125.976ZM200.669 89.695H219.789V124.744H200.669V89.695ZM332.696 127.208C330.943 127.208 329.135 126.312 327.546 124.744C326.122 123.288 325.519 121.721 325.629 119.985V111.699C326.889 111.923 328.094 112.147 329.299 112.259C329.902 112.371 330.45 112.483 331.052 112.595C332.586 112.875 333.846 113.099 334.778 113.49C336.805 114.274 338.503 115.618 339.106 116.906L339.325 117.466L339.434 117.578L339.544 117.802C340.146 118.809 340.092 120.433 339.325 122.337C338.558 124.576 336.914 125.92 335.654 126.312L334.887 126.536L334.668 126.76C334.175 126.984 333.518 127.152 332.751 127.152L332.696 127.208ZM576.096 116.234H626.496C624.195 119.817 621.127 122.897 617.512 125.248C612.581 128.439 606.993 130.119 601.241 130.119C591.106 130.119 581.684 124.8 576.041 116.234H576.096Z" fill="#B5C9EA"/>
<path d="M80.147 142.822C55.8782 142.822 36.4303 122.666 36.4303 98.1429C36.4303 73.6196 55.8782 53.4636 80.147 53.4636C104.416 53.4636 123.645 73.6196 123.645 98.1429C123.645 122.666 104.197 142.822 80.147 142.822ZM80.147 33.3074C63.1095 33.3074 47.7155 40.1941 36.1564 51.224V33.3074H16.4346V182.855H36.1564V145.062C47.6608 156.092 63.0547 162.979 80.147 162.979C114.989 162.979 143.585 134.032 143.585 98.1429C143.585 62.2538 114.989 33.3074 80.147 33.3074Z" fill="#E4E4E4"/>
<path d="M80.1454 33.3091C114.987 33.3091 143.584 62.2555 143.584 98.1446C143.584 134.034 114.987 162.98 80.1454 162.98C63.108 162.98 47.714 156.094 36.1548 145.064V182.857H16.433V33.3091H36.1548V51.2257C47.6592 40.1959 63.0532 33.3091 80.1454 33.3091ZM80.1454 142.824C104.195 142.824 123.643 122.668 123.643 98.1446C123.643 73.6213 104.195 53.4653 80.1454 53.4653C56.0958 53.4653 36.4288 73.6213 36.4288 98.1446C36.4288 122.668 55.8766 142.824 80.1454 142.824ZM80.1454 19.8157C69.3532 19.8157 58.9993 21.9992 49.4123 26.4224V19.8157H3.28516V196.35H49.4123V169.811C58.9993 174.234 69.3532 176.418 80.1454 176.418C90.9376 176.418 100.306 174.234 109.947 170.259C119.096 166.34 127.259 160.685 134.216 153.574C141.173 146.184 146.707 137.841 150.541 128.547C154.65 118.973 156.567 108.671 156.567 98.0888C156.567 87.5068 154.65 77.2047 150.541 67.6306C146.707 58.2804 141.173 49.938 134.216 42.8273C127.259 35.4368 119.096 29.8377 109.947 25.8624C100.36 21.9432 90.4994 19.7037 80.1454 19.7037V19.8157ZM80.1454 129.331C63.3271 129.331 49.6314 115.333 49.6314 98.1446C49.6314 80.9559 63.3271 66.9587 80.1454 66.9587C96.9638 66.9587 110.44 80.9559 110.44 98.1446C110.44 115.333 96.7446 129.331 80.1454 129.331Z" fill="black"/>
<path d="M220.224 16.8512H164.51V161.752H220.224V141.595H184.177V72.8405H220.224V54.42H184.177V37.0074H220.224V16.8512Z" fill="#E4E4E4"/>
<path d="M220.224 16.8488V37.005H184.177V54.4176H220.224V72.8381H184.177V141.593H220.224V161.749H164.51V16.9048H220.224V16.8488ZM233.427 3.35535H151.253V175.243H233.427V128.1H197.38V86.3316H233.427V3.35535Z" fill="black"/>
<path d="M280.049 32.3015C268.27 32.3015 257.204 36.7246 249.042 45.2909C240.879 53.6333 236.332 64.9433 236.332 76.701V161.637H256.054V76.701C256.054 70.3182 258.683 64.1594 263.011 59.5123C267.558 54.8651 273.584 52.4017 280.049 52.4017C282.459 52.4017 284.87 52.9056 287.006 53.6334V32.7494C284.815 32.2455 282.459 32.2455 280.049 32.2455V32.3015Z" fill="#E4E4E4"/>
<path d="M280.048 32.303C282.459 32.303 284.869 32.303 287.006 32.8069V53.6908C284.814 52.963 282.459 52.459 280.048 52.459C273.584 52.459 267.558 54.9227 263.011 59.5698C258.683 64.2169 256.053 70.3758 256.053 76.7586V161.694H236.332V76.7586C236.332 65.0008 240.879 53.6909 249.041 45.3485C257.204 36.7821 268.27 32.3589 280.048 32.3589V32.303ZM280.048 18.8096C264.654 18.8096 250.52 24.6885 239.673 35.7743C229.1 46.8042 223.074 61.3055 223.074 76.7586V175.244H269.201V76.7586C269.201 73.7911 270.407 71.1035 272.324 69.1439C276.159 65.2247 280.98 64.2168 287.006 65.4486C288.43 65.6726 299.989 69.144 299.989 69.3679V22.4489C296.648 21.441 293.525 20.4892 289.909 19.7613C286.787 19.0334 283.445 18.7535 280.048 18.7535V18.8096Z" fill="black"/>
<path d="M374.49 128.827C379.037 107.943 366.108 86.1072 346.387 79.5005C341.84 77.7648 335.814 77.3169 331.486 76.5331C320.2 74.7974 316.366 61.0799 324.035 53.6893C326.446 51.2258 329.568 49.9942 332.691 49.9942C336.307 49.9942 339.922 51.4499 342.278 54.1934H362.219C358.11 40.9239 345.401 32.3574 332.417 32.3574C325.46 32.3574 318.502 34.5411 312.476 39.9721C296.37 53.9694 298.78 80.7323 317.297 91.0343C324.254 95.4574 333.129 95.2334 340.361 97.641C346.113 99.6006 351.153 104.024 353.837 109.679C360.301 121.716 353.344 138.177 340.634 142.321C338.005 143.328 335.375 143.776 332.691 143.776C320.42 143.776 308.915 133.194 309.134 119.701V116.005H289.193V119.701C289.412 126.811 291.111 133.698 294.233 140.081C302.615 156.038 317.516 163.428 332.198 163.428C350.934 163.428 369.669 151.391 374.49 128.827Z" fill="#E4E4E4"/>
<path d="M380.737 91.9839C374.273 80.674 364.631 70.148 352.853 65.7249H377.834C376.848 55.6468 375.423 48.7601 370.602 40.6977C367.48 35.3227 363.152 30.8995 358.331 27.2042C350.661 21.8292 341.513 18.8617 332.364 18.8617C327.324 18.8617 322.284 19.8696 317.463 21.5492C312.642 23.2849 308.095 25.9725 303.767 29.6678C298.234 34.5948 294.18 40.6976 291.496 47.5842C289.085 54.191 288.154 61.3577 288.866 68.1884C289.359 75.2991 291.77 81.9617 295.331 87.8406C298.892 93.7194 303.986 98.6465 309.739 102.342H275.883V110.46L276.102 119.811C276.102 129.161 278.238 138.231 282.566 146.349V146.573C287.606 156.148 295.057 164.266 304.206 169.417C312.587 174.344 322.229 177.031 332.09 177.031C344.58 177.031 356.578 172.832 366.439 165.498C377.012 157.155 384.243 145.622 387.092 131.848C389.995 118.355 387.804 104.357 380.628 92.0958L380.737 91.9839ZM322.339 110.404V107.437C324.968 108.165 327.598 108.669 329.789 108.893C332.2 109.396 334.336 109.621 336.034 110.348C338.664 111.356 341.074 113.316 342.06 115.499L342.28 115.723V115.947C343.485 117.907 343.485 120.594 342.28 123.562C341.293 126.529 338.938 128.713 336.527 129.441L336.308 129.665H336.089C335.103 130.168 333.953 130.392 332.747 130.392C330.118 130.392 327.488 129.161 325.297 126.977C323.873 125.521 322.174 123.058 322.393 119.587V110.236L322.339 110.404ZM374.492 128.825C369.671 151.388 350.935 163.426 332.2 163.426C317.573 163.426 302.672 156.036 294.235 140.079C291.112 133.696 289.414 126.809 289.195 119.698V116.003H309.136V119.698C308.917 133.192 320.421 143.774 332.693 143.774C335.322 143.774 337.952 143.27 340.636 142.318C353.346 138.119 360.358 121.714 353.839 109.676C351.209 104.021 346.169 99.5983 340.362 97.6387C333.131 95.1752 324.256 95.4551 317.299 91.032C298.782 80.73 296.372 53.9671 312.478 39.9698C318.504 34.5948 325.461 32.3551 332.419 32.3551C345.402 32.3551 358.112 40.9216 362.221 54.1911H342.28C339.869 51.5036 336.253 49.9919 332.693 49.9919C329.57 49.9919 326.447 51.2235 324.037 53.687C316.367 61.0776 320.202 74.7951 331.487 76.5308C335.815 77.2586 341.841 77.7625 346.388 79.4982C366.11 86.1049 379.039 107.997 374.492 128.825Z" fill="black"/>
<path d="M455.629 142.822C431.361 142.822 411.913 122.666 411.913 98.1429C411.913 73.6196 431.361 53.4636 455.629 53.4636C479.898 53.4636 499.127 73.6196 499.127 98.1429C499.127 122.666 479.679 142.822 455.629 142.822ZM455.629 33.3074C438.592 33.3074 423.198 40.1941 411.639 51.224V33.3074H391.917V182.855H411.639V145.062C423.143 156.092 438.537 162.979 455.629 162.979C490.471 162.979 519.068 134.032 519.068 98.1429C519.068 62.2538 490.471 33.3074 455.629 33.3074Z" fill="#E4E4E4"/>
<path d="M455.627 33.3091C490.469 33.3091 519.065 62.2555 519.065 98.1446C519.065 134.034 490.469 162.98 455.627 162.98C438.589 162.98 423.195 156.094 411.636 145.064V182.857H391.914V33.3091H411.636V51.2257C423.141 40.1959 438.535 33.3091 455.627 33.3091ZM455.627 142.824C479.677 142.824 499.124 122.668 499.124 98.1446C499.124 73.6213 479.677 53.4653 455.627 53.4653C431.577 53.4653 411.91 73.6213 411.91 98.1446C411.91 122.668 431.358 142.824 455.627 142.824ZM455.627 19.8157C444.835 19.8157 434.481 21.9992 424.894 26.4224V19.8157H378.767V196.35H424.894V169.811C434.481 174.234 444.835 176.418 455.627 176.418C466.419 176.418 475.787 174.234 485.429 170.259C494.577 166.34 502.74 160.685 509.698 153.574C516.655 146.184 522.188 137.841 526.023 128.547C530.132 118.973 532.049 108.671 532.049 98.0888C532.049 87.5068 530.132 77.2047 526.023 67.6306C522.188 58.2804 516.655 49.938 509.698 42.8273C502.74 35.4368 494.577 29.8377 485.429 25.8624C475.842 21.9432 465.981 19.7037 455.627 19.7037V19.8157ZM455.627 129.331C438.809 129.331 425.113 115.333 425.113 98.1446C425.113 80.9559 438.809 66.9587 455.627 66.9587C472.445 66.9587 485.922 80.9559 485.922 98.1446C485.922 115.333 472.226 129.331 455.627 129.331Z" fill="black"/>
<path d="M558.289 80.6702C565.246 63.4815 581.846 51.4438 601.294 51.4438C620.741 51.4438 637.341 63.4815 644.298 80.6702H558.289ZM601.294 31.1196C564.534 31.1196 534.732 61.578 534.732 99.1468C534.732 136.716 564.534 167.398 601.294 167.398C631.095 167.398 656.295 147.242 664.732 119.751H643.367C635.916 135.708 619.81 147.018 601.348 147.018C575.655 147.018 554.728 125.63 554.728 99.3706H667.909V99.1468C667.909 61.578 638.108 31.1196 601.348 31.1196H601.294Z" fill="#E4E4E4"/>
<path d="M570.504 112.866H632.025L631.532 113.874C628.903 119.752 624.575 124.68 619.261 128.095C614.002 131.51 607.756 133.47 601.237 133.47C587.542 133.47 575.763 124.903 570.504 112.866ZM558.288 80.6719H644.297C637.339 63.4832 620.74 51.4455 601.292 51.4455C581.844 51.4455 565.245 63.4832 558.288 80.6719ZM601.292 31.1214C638.051 31.1214 667.853 61.5797 667.853 99.1485V99.3723H554.672C554.672 125.631 575.599 147.019 601.292 147.019C619.809 147.019 635.915 135.709 643.31 119.753H664.676C656.294 147.243 631.039 167.399 601.237 167.399C564.478 167.399 534.676 136.717 534.676 99.1485C534.676 61.5797 564.478 31.1214 601.237 31.1214H601.292ZM601.292 17.572C590.5 17.572 580.146 19.7556 570.285 24.1787C560.698 28.098 552.261 33.977 544.811 41.5915C537.58 48.9821 531.827 57.7723 527.774 67.3464C523.665 77.4245 521.528 88.2305 521.528 99.0364C521.528 109.842 523.665 120.872 527.774 130.95C531.882 140.525 537.634 149.371 544.811 156.706C552.261 164.32 560.643 170.199 570.285 174.118C580.146 178.541 590.445 180.501 601.292 180.501C609.948 180.501 618.603 179.269 626.766 176.302C634.71 173.614 642.16 169.695 648.844 164.544C655.582 159.393 661.334 153.514 666.155 146.347C681.987 123.784 685.384 93.0457 674.811 67.2906C670.702 57.7164 664.95 48.8701 657.773 41.5355C650.323 33.9209 641.941 28.0419 632.299 24.1227C622.438 19.6995 612.139 17.516 601.292 17.516V17.572Z" fill="black"/>
<path d="M750.907 30.6286C714.148 30.6286 684.346 61.0868 684.346 98.6556C684.346 136.224 714.148 166.907 750.907 166.907C760.494 166.907 769.862 164.723 778.079 160.748C796.322 152.406 810.291 135.945 815.331 115.789H794.678C788.214 132.753 772.601 145.239 753.81 146.471H750.907C724.94 146.471 704.068 125.083 704.068 98.5997C704.068 72.1168 725.214 50.9528 750.907 50.9528H753.536C771.56 51.9606 786.954 63.4944 793.637 79.4513C793.637 79.4513 793.71 79.526 793.857 79.6753H814.784C808.045 55.5999 788.597 37.1794 764.329 32.0284C760.001 31.0206 755.454 30.5728 750.852 30.5728L750.907 30.6286Z" fill="#E4E4E4"/>
<path d="M817.414 102.292H784.271C783.558 110.131 780.162 117.298 774.684 122.896C768.219 129.503 759.783 132.974 750.908 132.974C742.033 132.974 733.377 129.559 727.132 122.896C720.887 116.514 717.271 107.891 717.271 98.5971C717.271 89.3029 720.887 80.9045 727.132 74.2978C733.377 67.915 742.033 64.2196 750.908 64.2196C759.783 64.2196 768.219 67.915 774.684 74.2978C779.724 79.4488 782.846 86.0555 784.051 93.2222H830.398C829.905 84.1519 827.768 75.3056 824.372 66.9632C820.263 57.389 814.511 48.5427 807.334 41.2081C799.884 33.5935 791.502 27.7145 781.86 23.7953C771.999 19.3721 761.7 17.1886 750.853 17.1886C740.006 17.1886 729.707 19.3721 719.846 23.7953C710.259 27.7145 701.823 33.5935 694.372 41.2081C687.141 48.5986 681.389 57.389 677.335 66.9632C673.226 77.0413 671.089 87.847 671.089 98.653C671.089 109.459 673.226 120.489 677.335 130.567C681.443 140.141 687.196 148.987 694.372 156.322C701.823 163.937 710.204 169.591 719.846 173.735C729.707 178.158 740.006 180.118 750.853 180.118C761.7 180.118 771.999 178.158 781.86 173.735C791.447 169.535 799.884 163.937 807.334 156.322C814.565 148.931 820.318 140.141 824.372 130.567C827.987 121.497 830.124 112.146 830.617 102.348H817.414V102.292ZM750.908 166.904C714.149 166.904 684.347 136.222 684.347 98.653C684.347 61.0841 714.149 30.626 750.908 30.626C781.203 30.626 806.622 51.2302 814.839 79.7287H793.912C786.681 62.764 770.137 51.0062 750.908 51.0062C724.941 51.0062 704.069 72.394 704.069 98.653C704.069 124.912 724.996 146.524 750.908 146.524C770.849 146.524 787.886 133.758 794.625 115.842H815.278C808.046 145.068 781.86 166.904 750.908 166.904Z" fill="black"/>
<path d="M862.554 16.8512H842.613V33.816H824.097V52.4603H842.613V161.752H862.554V52.4603H881.016V33.816H862.554V16.8512Z" fill="#E4E4E4"/>
<path d="M862.553 16.8488V33.8135H881.07V52.4579H862.553V161.693H842.612V52.4579H824.096V33.8135H842.612V16.8488H862.553ZM875.756 3.35535H829.629V19.8162H810.893V65.7275H829.629V175.243H875.756V65.7275H894.272V19.8162H875.756V3.35535Z" fill="black"/>
<path d="M914.929 40.1988V16.8512H895.207V40.1988H914.929ZM914.929 161.752V54.476H895.207V161.752H914.929Z" fill="#E4E4E4"/>
<path d="M914.928 40.1964H895.206V16.8488H914.928V40.1964ZM914.928 161.749H895.206V54.4736H914.928V161.749ZM928.131 3.35535H882.003V175.243H928.131V3.35535Z" fill="black"/>
<path d="M994.192 33.0898H974.744L963.185 125.64L951.681 33.0898H932.452L951.407 161.473H974.964L994.192 33.0898Z" fill="#E4E4E4"/>
<path d="M994.195 33.0894L974.966 161.529H951.409L932.455 33.0894H951.683L963.188 125.64L974.692 33.0894H994.14H994.195ZM1009.31 19.54H917.061L919.471 34.993L938.426 163.656L940.124 174.966H986.251L987.95 163.656L1007.18 34.993L1009.37 19.54H1009.31Z" fill="black"/>
<path d="M1067.22 16.8512H1011.51V161.752H1067.22V141.595H1031.17V72.8405H1067.22V54.42H1031.17V37.0074H1067.22V16.8512Z" fill="#E4E4E4"/>
<path d="M1067.22 16.8488V37.005H1031.17V54.4176H1067.22V72.8381H1031.17V141.593H1067.22V161.749H1011.51V16.9048H1067.22V16.8488ZM1080.42 3.35535H998.25V175.243H1080.42V128.1H1044.38V86.3316H1080.42V3.35535Z" fill="black"/>
</svg>
