<svg width="623" height="200" viewBox="0 0 623 200" fill="none" xmlns="http://www.w3.org/2000/svg">
<path d="M525.094 198.03L535.12 157.102L524.053 117.013C523.067 121.381 521.752 125.468 520.109 129.275C516.274 138.625 510.631 147.192 503.455 154.806C495.95 162.197 487.513 167.964 478.419 171.883C468.503 176.026 458.259 178.154 448.015 178.154C437.77 178.154 428.238 176.194 419.144 172.387V176.922H369.73V138.121C366.334 144.168 362.225 149.767 357.459 154.806C349.953 162.197 341.517 167.964 332.423 171.883C322.507 176.026 312.263 178.154 302.018 178.154C291.774 178.154 282.242 176.194 273.148 172.387V176.922H223.734V138.737C219.954 145.736 215.352 152.063 209.983 157.55C202.533 165.164 194.042 170.987 184.016 175.354C174.265 179.721 163.911 181.849 152.407 181.849C140.902 181.849 130.548 179.721 120.742 175.298C110.717 170.931 102.226 165.108 94.7753 157.494C90.3927 153.014 86.5031 147.92 83.1066 142.265V176.866H1.75391V1.61914H51.1681V28.942C65.7403 32.2453 77.409 43.5552 81.5177 58.0004C85.2429 51.2257 89.735 45.123 94.8298 39.972C102.609 32.0215 111.319 26.0307 120.852 22.1675C130.822 17.6883 141.45 15.3926 152.461 15.3926C163.473 15.3926 174.101 17.6883 184.126 22.1675C193.549 26.0307 202.314 32.0215 210.093 39.972C215.462 45.459 220.064 51.7297 223.844 58.7844V1.67518H273.257V23.9031C282.351 20.0958 292.048 18.1361 302.128 18.1361C312.208 18.1361 322.617 20.2636 332.533 24.4068C341.846 28.4381 350.282 34.2611 357.568 41.7077C362.334 46.5788 366.443 52.1217 369.894 58.1686V1.67518H419.309V23.9031C428.403 20.0958 438.099 18.1361 448.179 18.1361C458.259 18.1361 468.668 20.2636 478.584 24.4068C487.787 28.3821 496.114 34.0933 503.4 41.4838L496.881 18.1361H548.377L551.061 29.5021L559.005 59.5122L566.126 29.5021L569.085 18.1361H620.033L615.157 37.1726L576.481 186.72L573.796 198.03H525.258H525.094ZM152.242 65.8951C143.806 65.8951 135.588 69.3662 129.617 75.4691C123.591 81.8518 120.249 90.0823 120.249 98.5927C120.249 107.103 123.591 115.557 129.617 121.716C135.424 127.875 143.477 131.291 152.242 131.291C161.008 131.291 168.842 127.875 174.868 121.716C180.894 115.557 184.235 107.327 184.235 98.5927C184.235 89.8583 180.894 81.8518 174.868 75.4691C168.623 69.3102 160.569 65.8951 152.242 65.8951ZM447.96 68.6385C432.018 68.6385 419.089 81.8521 419.089 98.145C419.089 114.438 432.018 127.651 447.96 127.651C463.902 127.651 476.831 114.438 476.831 98.145C476.831 81.8521 463.902 68.6385 447.96 68.6385ZM301.909 68.6385C285.967 68.6385 273.038 81.8521 273.038 98.145C273.038 114.438 285.967 127.651 301.909 127.651C317.851 127.651 330.779 114.438 330.779 98.145C330.779 81.8521 317.851 68.6385 301.909 68.6385Z" fill="black"/>
<path d="M417.445 3.35922V26.4271C427.032 22.004 437.386 19.8201 447.959 19.8201C458.532 19.8201 468.393 22.0039 477.761 25.9791C486.91 29.8984 495.073 35.5531 502.249 42.9437C503.783 44.5114 505.262 46.1911 506.632 47.8708L503.619 37.0649L498.798 19.8761H546.842L549.252 29.9541L558.839 66.2915L567.495 29.9541L570.125 19.8761H617.676L613.348 36.8411L574.672 186.388L572.261 196.467H527.12L531.229 179.782L536.762 157.218L523.669 109.795C522.738 116.29 521.149 122.673 518.574 128.719C514.739 138.07 509.206 146.412 502.249 153.747C495.018 160.857 486.855 166.512 477.761 170.431C468.393 174.351 458.313 176.59 447.959 176.59C437.605 176.59 427.032 174.407 417.445 169.983V175.359H371.318V131.351C367.538 139.637 362.498 147.14 356.198 153.747C348.967 160.857 340.804 166.512 331.71 170.431C322.342 174.351 312.262 176.59 301.908 176.59C291.554 176.59 280.981 174.407 271.394 169.983V175.359H225.267V131.743C221.213 140.925 215.68 149.38 208.723 156.49C201.272 164.105 192.89 169.76 183.249 173.903C173.388 178.326 163.089 180.286 152.242 180.286C141.395 180.286 131.095 178.326 121.234 173.903C111.647 169.704 103.211 164.105 95.7606 156.49C89.8988 150.499 85.0778 143.557 81.243 136.054V175.415H3.1775V3.52735H49.3045V30.5142C65.2463 33.5377 77.9562 46.5831 80.6953 62.9319C84.5849 54.9815 89.6249 47.5909 95.7606 41.3201C103.211 33.7056 111.593 27.8268 121.234 23.9075C131.095 19.4844 141.395 17.3008 152.242 17.3008C163.089 17.3008 173.388 19.4844 183.249 23.9075C192.836 27.8268 201.272 33.7056 208.723 41.3201C215.68 48.4308 221.213 56.8851 225.267 66.0673V3.52735H271.394V26.5949C280.981 22.1718 291.335 19.9882 301.908 19.9882C312.481 19.9882 322.342 22.1717 331.71 26.1469C340.859 30.0662 349.021 35.7212 356.198 43.1118C362.498 49.5506 367.538 57.0533 371.318 65.2837V3.5834H417.445M160.843 51.7901C160.843 51.7901 161.281 51.9022 161.5 51.9022C161.281 51.9022 161.062 51.7901 160.843 51.7901C159.583 51.5662 158.323 51.3423 157.063 51.2304C155.364 51.0064 153.94 51.0062 152.242 51.0062C155.2 51.0062 158.049 51.2863 160.843 51.8462M146.49 51.3981C146.49 51.3981 146.325 51.3981 146.27 51.3981C146.106 51.3981 145.942 51.3982 145.777 51.4542C145.613 51.4542 145.448 51.5103 145.229 51.5663C145.558 51.5663 145.941 51.4541 146.27 51.3981C146.325 51.3981 146.435 51.3981 146.49 51.3981ZM152.242 132.975C161.116 132.975 169.553 129.559 176.017 122.897C182.262 116.514 185.878 107.891 185.878 98.5971C185.878 89.3029 182.262 80.9047 176.017 74.2979C169.553 67.9151 161.116 64.2199 152.242 64.2199C143.367 64.2199 134.711 67.9151 128.466 74.2979C122.221 80.9047 118.605 89.5268 118.605 98.5971C118.605 107.667 122.221 116.514 128.466 122.897C134.711 129.503 143.367 132.975 152.242 132.975ZM447.959 129.279C464.777 129.279 478.473 115.282 478.473 98.0934C478.473 80.9047 464.777 66.9073 447.959 66.9073C431.141 66.9073 417.445 80.9047 417.445 98.0934C417.445 115.282 431.141 129.279 447.959 129.279ZM301.908 129.279C318.727 129.279 332.422 115.282 332.422 98.0934C332.422 80.9047 318.727 66.9073 301.908 66.9073C285.09 66.9073 271.394 80.9047 271.394 98.0934C271.394 115.282 285.09 129.279 301.908 129.279ZM198.697 92.5505C198.697 92.5505 198.697 92.1584 198.643 91.9904C198.643 91.7105 198.533 91.4307 198.478 91.1508C198.533 91.5987 198.643 92.1026 198.697 92.5505ZM199.081 98.5971C199.081 100.277 198.862 101.957 198.862 103.412C198.698 104.812 198.533 106.212 198.259 107.612C198.259 107.78 198.204 107.891 198.15 108.059C198.15 107.891 198.204 107.78 198.259 107.612C198.533 106.268 198.698 104.868 198.862 103.524V103.412C199.026 101.845 199.081 100.221 199.081 98.5971ZM161.829 145.46C176.949 142.325 189.33 131.687 195.301 117.522C189.33 131.687 176.894 142.269 161.829 145.46ZM161.171 145.628C161.171 145.628 161.007 145.628 160.897 145.628C159.911 145.796 158.925 145.964 157.884 146.076C158.268 146.076 158.651 146.02 158.98 145.964C159.637 145.852 160.24 145.74 160.897 145.628C161.007 145.628 161.062 145.628 161.171 145.628ZM420.732 0H368.031V52.2942C365.237 48.039 362.06 44.1195 358.554 40.5362C351.103 32.9217 342.502 26.931 333.025 22.8998C322.89 18.6446 312.426 16.5169 301.963 16.5169C292.54 16.5169 283.392 18.1967 274.736 21.5V0.056044H222.035V52.7418C218.857 47.6468 215.187 42.9998 211.078 38.8566C203.19 30.7941 194.205 24.6353 184.509 20.6601C174.374 16.1249 163.527 13.7735 152.296 13.7735C141.066 13.7735 130.219 16.1249 119.974 20.6601C110.387 24.5793 101.403 30.6821 93.5143 38.8006C89.1317 43.2797 85.1876 48.3749 81.791 54.0298C76.9154 41.1523 66.068 31.1861 52.701 27.6587V0H0V178.606H84.6395V147.924C87.3239 151.843 90.2821 155.426 93.5143 158.73C101.129 166.512 109.785 172.447 120.029 176.87C130 181.35 140.573 183.533 152.296 183.533C164.02 183.533 174.593 181.35 184.618 176.87C194.808 172.447 203.464 166.512 211.078 158.73C215.187 154.53 218.803 149.883 222.035 144.844V178.606H274.736V174.855C283.392 178.158 292.54 179.838 301.963 179.838C312.426 179.838 322.89 177.71 333.025 173.455C342.393 169.424 350.939 163.601 358.554 156.042C362.114 152.291 365.292 148.26 368.086 144.005V178.606H420.787V174.855C429.442 178.158 438.591 179.838 448.014 179.838C458.477 179.838 468.941 177.71 479.076 173.455C488.444 169.424 496.99 163.601 504.605 156.042C512.055 148.204 517.753 139.413 521.697 129.895C522.628 127.768 523.395 125.584 524.107 123.289L533.475 157.162L528.161 178.886L524.052 195.571L523.012 199.77H574.946L575.548 197.195L577.959 187.116L616.635 37.625L620.963 20.6601L622.059 16.4609H567.714L567.057 18.9244L564.427 29.0024L558.785 52.6861L552.54 29.0024L550.184 19.0365L549.581 16.4609H494.579L495.784 20.7161L500.112 36.1692C493.758 30.5703 486.745 26.0911 479.131 22.8437C468.996 18.5885 458.532 16.4609 448.069 16.4609C438.646 16.4609 429.497 18.1406 420.842 21.444V0H420.732ZM152.242 129.615C143.915 129.615 136.3 126.424 130.821 120.601C125.069 114.722 121.892 106.884 121.892 98.5971C121.892 90.3107 125.069 82.7522 130.821 76.5933C136.409 70.8824 144.243 67.5791 152.242 67.5791C160.24 67.5791 167.745 70.8266 173.771 76.7054C179.469 82.7523 182.591 90.5346 182.591 98.5971C182.591 106.66 179.414 114.666 173.716 120.545C167.964 126.424 160.349 129.615 152.242 129.615ZM447.959 125.92C432.949 125.92 420.732 113.434 420.732 98.0934C420.732 82.7523 432.949 70.2665 447.959 70.2665C462.97 70.2665 475.186 82.7523 475.186 98.0934C475.186 113.434 462.97 125.92 447.959 125.92ZM301.908 125.92C286.898 125.92 274.681 113.434 274.681 98.0934C274.681 82.7523 286.898 70.2665 301.908 70.2665C316.919 70.2665 329.135 82.7523 329.135 98.0934C329.135 113.434 316.919 125.92 301.908 125.92Z" fill="#B5C9EA"/>
<path d="M36.1556 16.8516H16.4336V161.696H36.1556V69.3696C36.1556 65.9542 38.785 63.2105 42.1816 63.2105C45.5781 63.2105 48.2079 65.8982 48.2079 69.3696V161.696H68.1486V69.3696C68.1486 54.8683 56.6442 43.1106 42.1816 43.1106C40.2642 43.1106 38.073 43.3345 36.1556 43.8384V16.8516Z" fill="#E4E4E4"/>
<path d="M36.155 16.851V43.8379C38.0724 43.334 40.2636 43.11 42.181 43.11C56.5888 43.11 68.148 54.8678 68.148 69.369V161.695H48.2073V69.369C48.2073 65.9537 45.5775 63.21 42.181 63.21C38.7844 63.21 36.155 65.8977 36.155 69.369V161.695H16.433V16.851H36.155ZM49.3575 3.35742H3.23047V175.245H81.296V69.4251C81.296 50.0528 67.381 33.8157 49.3575 30.4004V3.41347V3.35742Z" fill="black"/>
<path d="M152.245 51.0088C153.943 51.0088 155.367 51.009 157.066 51.2329C178.431 53.4165 195.523 70.3811 198.646 91.993C198.865 94.1766 199.139 96.4161 199.139 98.5997C199.139 100.335 198.92 102.015 198.92 103.527C196.783 125.363 180.184 143.055 159.038 146.023C156.901 146.247 154.491 146.527 152.3 146.527C126.333 146.527 105.46 125.139 105.46 98.6557C105.46 97.2 105.679 95.4642 105.679 94.0085C107.816 71.8927 124.634 54.4802 145.781 51.5128C147.917 51.0089 150.108 51.0088 152.245 51.0088ZM152.245 30.6289C115.486 30.6289 85.6836 61.0869 85.6836 98.6557C85.6836 136.225 115.486 166.907 152.245 166.907C189.004 166.907 218.806 136.225 218.806 98.6557C218.806 61.0869 189.004 30.6289 152.245 30.6289Z" fill="#E4E4E4"/>
<path d="M152.243 64.2243C161.118 64.2243 169.554 67.9195 176.019 74.3023C182.264 80.909 185.88 89.5312 185.88 98.6015C185.88 107.672 182.264 116.518 176.019 122.901C169.554 129.508 161.118 132.979 152.243 132.979C143.368 132.979 134.713 129.564 128.467 122.901C122.222 116.518 118.607 107.896 118.607 98.6015C118.607 89.3073 122.222 80.909 128.467 74.3023C134.713 67.9195 143.368 64.2243 152.243 64.2243ZM152.243 51.0106C126.276 51.0106 105.404 72.3985 105.404 98.6575C105.404 124.917 126.331 146.528 152.243 146.528C178.156 146.528 199.082 125.14 199.082 98.6575C199.082 72.1746 177.936 51.0106 152.243 51.0106ZM152.243 30.6307C189.003 30.6307 218.804 61.0887 218.804 98.6575C218.804 136.226 189.003 166.909 152.243 166.909C115.484 166.909 85.682 136.226 85.682 98.6575C85.682 61.0887 115.484 30.6307 152.243 30.6307ZM152.243 17.0811C141.451 17.0811 131.097 19.2646 121.236 23.6878C111.649 27.607 103.213 33.4861 95.7622 41.1007C88.5309 48.4913 82.7784 57.2815 78.7245 66.8556C74.6158 76.9337 72.4795 87.7395 72.4795 98.5454C72.4795 109.351 74.6158 120.381 78.7245 130.459C82.8332 140.034 88.5856 148.88 95.7622 156.215C103.213 163.829 111.594 169.484 121.236 173.627C131.097 178.05 141.396 180.01 152.243 180.01C163.09 180.01 173.389 178.05 183.25 173.627C192.837 169.428 201.274 163.829 208.724 156.215C215.956 148.824 221.708 140.034 225.762 130.459C229.87 120.381 232.007 109.575 232.007 98.5454C232.007 87.5155 229.87 76.9337 225.762 66.8556C221.653 57.2815 215.901 48.4353 208.724 41.1007C201.274 33.4861 192.892 27.607 183.25 23.6878C173.389 19.2646 163.09 17.0811 152.243 17.0811Z" fill="black"/>
<path d="M301.909 142.83C277.86 142.83 258.412 122.674 258.412 98.1505C258.412 73.6272 277.86 53.4708 301.909 53.4708C325.959 53.4708 345.626 73.6272 345.626 98.1505C345.626 122.674 325.904 142.83 301.909 142.83ZM258.192 16.8539H238.471V161.698H258.192V145.014C269.697 156.043 285.091 162.93 301.909 162.93C336.97 162.93 365.348 133.984 365.348 98.0944C365.348 62.2053 337.025 33.2587 301.909 33.2587C285.091 33.2587 269.697 40.1455 258.192 51.1754V16.7979V16.8539Z" fill="#E4E4E4"/>
<path d="M258.191 16.8511V51.2286C269.696 40.1987 285.09 33.3119 301.908 33.3119C336.969 33.3119 365.346 62.2585 365.346 98.1477C365.346 134.037 337.024 162.983 301.908 162.983C285.09 162.983 269.696 156.097 258.191 145.067V161.751H238.469V16.9071H258.191V16.8511ZM301.908 142.827C325.958 142.827 345.625 122.671 345.625 98.1477C345.625 73.6243 325.903 53.468 301.908 53.468C277.913 53.468 258.41 73.6243 258.41 98.1477C258.41 122.671 277.858 142.827 301.908 142.827ZM271.394 3.35746H225.267V175.245H271.394V169.87C280.981 174.293 291.335 176.477 301.908 176.477C312.481 176.477 322.342 174.293 331.71 170.318C340.859 166.398 349.021 160.744 356.198 153.633C363.155 146.242 368.688 137.9 372.523 128.606C376.632 119.032 378.549 108.73 378.549 98.1477C378.549 87.5657 376.632 77.2636 372.523 67.6895C368.688 58.3392 363.155 49.9969 356.198 42.8862C348.966 35.4957 340.804 29.8966 331.71 25.9213C322.342 22.0021 312.262 19.7626 301.908 19.7626C291.554 19.7626 280.981 21.9462 271.394 26.3693V3.30176V3.35746ZM301.908 129.278C285.09 129.278 271.394 115.28 271.394 98.0916C271.394 80.9029 285.09 66.9055 301.908 66.9055C318.726 66.9055 332.422 80.9029 332.422 98.0916C332.422 115.28 318.726 129.278 301.908 129.278Z" fill="black"/>
<path d="M447.961 142.83C423.911 142.83 404.463 122.674 404.463 98.1505C404.463 73.6272 423.911 53.4708 447.961 53.4708C472.01 53.4708 491.677 73.6272 491.677 98.1505C491.677 122.674 471.956 142.83 447.961 142.83ZM404.189 16.8539H384.468V161.698H404.189V145.014C415.694 156.043 431.088 162.93 447.906 162.93C482.967 162.93 511.345 133.984 511.345 98.0944C511.345 62.2053 483.022 33.2587 447.906 33.2587C431.088 33.2587 415.694 40.1455 404.189 51.1754V16.7979V16.8539Z" fill="#E4E4E4"/>
<path d="M404.188 16.8511V51.2286C415.692 40.1987 431.086 33.3119 447.905 33.3119C482.966 33.3119 511.343 62.2585 511.343 98.1477C511.343 134.037 483.02 162.983 447.905 162.983C431.086 162.983 415.692 156.097 404.188 145.067V161.751H384.466V16.9071H404.188V16.8511ZM447.959 142.827C472.009 142.827 491.676 122.671 491.676 98.1477C491.676 73.6243 471.954 53.468 447.959 53.468C423.965 53.468 404.462 73.6243 404.462 98.1477C404.462 122.671 423.91 142.827 447.959 142.827ZM417.445 3.35746H371.318V175.245H417.445V169.87C427.032 174.293 437.386 176.477 447.959 176.477C458.533 176.477 468.393 174.293 477.761 170.318C486.91 166.398 495.073 160.744 502.249 153.633C509.207 146.242 514.74 137.9 518.575 128.606C522.683 119.032 524.601 108.73 524.601 98.1477C524.601 87.5657 522.683 77.2636 518.575 67.6895C514.74 58.3392 509.207 49.9969 502.249 42.8862C495.018 35.4957 486.855 29.8966 477.761 25.9213C468.393 22.0021 458.313 19.7626 447.959 19.7626C437.605 19.7626 427.032 21.9462 417.445 26.3693V3.30176V3.35746ZM447.959 129.278C431.141 129.278 417.445 115.28 417.445 98.0916C417.445 80.9029 431.141 66.9055 447.959 66.9055C464.778 66.9055 478.474 80.9029 478.474 98.0916C478.474 115.28 464.778 129.278 447.959 129.278Z" fill="black"/>
<path d="M600.692 33.3076H580.258L559.112 120.483L536.541 33.3076H516.107L550.237 156.82L543.992 182.799H562.015L600.692 33.3076Z" fill="#E4E4E4"/>
<path d="M600.691 33.3114L562.014 182.859H543.991L550.236 156.824L516.106 33.3114H536.54L559.111 120.487L580.257 33.3114H600.691ZM617.728 19.8178H570.177L567.547 29.8962L558.892 66.2332L549.305 29.8962L546.894 19.8178H498.85L503.671 37.0066L536.814 157.048L531.281 179.612L527.173 196.296H572.314L574.724 186.218L613.401 36.6706L617.728 19.7061V19.8178Z" fill="black"/>
</svg>
